<svg width="42" height="42" fill="none" xmlns="http://www.w3.org/2000/svg"><path d="M20.231 32.538H5.261a3.492 3.492 0 0 1-3.491-3.492V5.262a3.492 3.492 0 0 1 3.492-3.493h23.785a3.492 3.492 0 0 1 3.492 3.492v14.97" stroke="#077BED" stroke-width="2.667" stroke-linecap="round" stroke-linejoin="round"/><path d="M30.231 40.03c5.413 0 9.8-4.387 9.8-9.8 0-5.412-4.387-9.8-9.8-9.8-5.412 0-9.8 4.388-9.8 9.8 0 5.413 4.388 9.8 9.8 9.8ZM7.923 11h18.462M7.923 17.154h18.462M7.923 23.308h10.77M27.447 27.446l5.569 5.57M33.016 27.446l-5.57 5.57" stroke="#077BED" stroke-width="2.667" stroke-linecap="round" stroke-linejoin="round"/></svg>