<svg width="42" height="42" viewBox="0 0 42 42" fill="none" xmlns="http://www.w3.org/2000/svg">
<path d="M20.2311 32.5384H5.26184C4.33562 32.5384 3.44734 32.1705 2.7924 31.5156C2.13747 30.8606 1.76953 29.9723 1.76953 29.0461V5.2615C1.76953 4.33529 2.13747 3.447 2.7924 2.79207C3.44734 2.13713 4.33562 1.7692 5.26184 1.7692H29.0465C29.9727 1.7692 30.861 2.13713 31.5159 2.79207C32.1708 3.447 32.5388 4.33529 32.5388 5.2615V20.2307" stroke="#077BED" stroke-width="2.66667" stroke-linecap="round" stroke-linejoin="round"></path>
<path d="M30.2312 40.0308C35.6435 40.0308 40.0312 35.6431 40.0312 30.2308C40.0312 24.8184 35.6435 20.4308 30.2312 20.4308C24.8188 20.4308 20.4312 24.8184 20.4312 30.2308C20.4312 35.6431 24.8188 40.0308 30.2312 40.0308Z" stroke="#077BED" stroke-width="2.66667" stroke-linecap="round" stroke-linejoin="round"></path>
<path d="M7.92334 11H26.3849" stroke="#077BED" stroke-width="2.66667" stroke-linecap="round" stroke-linejoin="round"></path>
<path d="M7.92334 17.1538H26.3849" stroke="#077BED" stroke-width="2.66667" stroke-linecap="round" stroke-linejoin="round"></path>
<path d="M7.92334 23.3077H18.6926" stroke="#077BED" stroke-width="2.66667" stroke-linecap="round" stroke-linejoin="round"></path>
<path d="M27.4468 27.4461L33.016 33.0154" stroke="#077BED" stroke-width="2.66667" stroke-linecap="round" stroke-linejoin="round"></path>
<path d="M33.016 27.4461L27.4468 33.0154" stroke="#077BED" stroke-width="2.66667" stroke-linecap="round" stroke-linejoin="round"></path>
</svg>
