<svg width="40" height="42" fill="none" xmlns="http://www.w3.org/2000/svg"><path d="M15.384 40.123c5.464 0 9.893-4.429 9.893-9.892 0-5.464-4.43-9.893-9.893-9.893-5.463 0-9.892 4.43-9.892 9.893 0 5.463 4.43 9.892 9.892 9.892ZM25.277 27.646h5.447L33.6 38.2M7.246 17.23l5.262-7.076h7.077" stroke="#077BED" stroke-width="2.667" stroke-linecap="round" stroke-linejoin="round"/><path d="m15.384 20.108 4.2-9.877 3.493 1.384a2.923 2.923 0 0 1 1.538 3.816l-2.738 6.584M27.692 9.215a3.6 3.6 0 1 0 0-7.2 3.6 3.6 0 0 0 0 7.2Z" stroke="#077BED" stroke-width="2.667" stroke-linecap="round" stroke-linejoin="round"/></svg>