<svg width="42" height="42" fill="none" xmlns="http://www.w3.org/2000/svg"><path d="M21.369 20.23s-2.077-9.507 1.538-9.83c3.077-.292 4.354 5.662 2.708 9.83h-4.246ZM16.2 20.23s2.076-9.507-1.539-9.83c-3.092-.292-4.43 5.785-2.692 9.83h4.23ZM21.293 23.308h4.184s.416 3.846-2.092 3.846-2.092-3.846-2.092-3.846ZM16.262 23.308h-4.185s-.4 3.846 2.092 3.846 2.093-3.846 2.093-3.846Z" fill="#077BED" stroke="#077BED" stroke-width="2.667" stroke-miterlimit="10"/><path d="M18.784 35.861c9.415 0 17.047-7.631 17.047-17.046 0-9.414-7.632-17.046-17.047-17.046-9.414 0-17.046 7.632-17.046 17.046 0 9.415 7.632 17.046 17.046 17.046ZM30.939 30.77l9.338 9.46" stroke="#077BED" stroke-width="2.667" stroke-miterlimit="10"/></svg>