<svg width="40" height="42" fill="none" xmlns="http://www.w3.org/2000/svg"><path d="M33.077 15.354 20 22.569 6.923 15.354 20 7.692l13.077 7.662Z" stroke="#077BED" stroke-width="2.667" stroke-linecap="round" stroke-linejoin="round"/><path d="M20 31.77 6.923 24.553v-9.2L20 22.569v9.2Z" stroke="#077BED" stroke-width="2.667" stroke-linecap="round" stroke-linejoin="round"/><path d="m20 31.77 13.077-7.216v-9.2L20 22.569v9.2Z" fill="#077BED" stroke="#077BED" stroke-width="2.667" stroke-linecap="round" stroke-linejoin="round"/><path d="M8.46 9.462V1.769M31.538 9.462V1.769M25.384 6.385V1.769M14.615 6.385V1.769M7.138 29.738l-5.661 3.185 5.661 2.23V39.4l7.323-2.477L20 40.231M32.861 29.738l5.662 3.185-5.662 2.23V39.4l-7.322-2.477L20 40.231" stroke="#077BED" stroke-width="2.667" stroke-linecap="round" stroke-linejoin="round"/></svg>