<svg width="40" height="42" fill="none" xmlns="http://www.w3.org/2000/svg"><path d="M25.2 22.415c7.693 1.108 13.231 4.616 13.231 8.724 0 5.015-8.246 9.092-18.461 9.092-10.216 0-18.43-4.077-18.43-9.093 0-3.569 4.168-6.661 10.26-8.153" stroke="#077BED" stroke-width="2.667" stroke-miterlimit="10"/><path d="M20 35.415c6.154 0 11.2-1.907 11.2-4.276 0-1.677-2.508-3.078-6.154-3.831 0 0 0-15.062 3.216-20.816 2.938-5.2 10.2-4.707 10.2-4.707M13.032 1.77c2.947.029 5.851.706 8.507 1.984a31.046 31.046 0 0 0-9.861 24.523C9.893 29.03 8.8 30.03 8.8 31.138c0 1.108 1.138 2.154 3.077 2.924" stroke="#077BED" stroke-width="2.667" stroke-linejoin="round"/><path d="M18.23 30.492s-.891-10.615 3.247-18.461" stroke="#077BED" stroke-width="2.667" stroke-miterlimit="10"/></svg>