<svg width="40" height="42" viewBox="0 0 40 42" fill="none" xmlns="http://www.w3.org/2000/svg">
<path d="M34.5847 26.8308C34.5847 34.2308 28.0462 40.2308 20.0001 40.2308C16.2989 40.3565 12.6966 39.0218 9.9709 36.5148C7.24515 34.0078 5.61448 30.5296 5.43085 26.8308C5.21546 15.6462 14.7232 11.1846 18.8308 1.76923C18.8308 1.76923 34.5847 13.0308 34.5847 26.8308Z" stroke="#077BED" stroke-width="2.66667" stroke-linejoin="round"></path>
<path d="M22.1694 14.3846C22.5627 15.7024 22.7597 17.0709 22.754 18.4462C22.754 23.2615 20.554 27.1538 17.8463 27.1538C15.954 27.1538 14.354 25.2769 13.5232 22.5385C12.3832 23.6534 11.489 24.9944 10.8981 26.4755C10.3073 27.9566 10.0328 29.545 10.0925 31.1385C10.2043 33.6567 11.31 36.0279 13.1672 37.7322C15.0244 39.4366 17.4816 40.3351 20.0002 40.2308C22.5213 40.335 24.9807 39.4344 26.8383 37.7268C28.696 36.0191 29.7999 33.644 29.9079 31.1231C29.8978 27.9406 29.2013 24.7978 27.8658 21.9091C26.5303 19.0204 24.5873 16.4539 22.1694 14.3846Z" stroke="#077BED" stroke-width="2.66667" stroke-linejoin="round"></path>
</svg>
