<svg width="40" height="42" fill="none" xmlns="http://www.w3.org/2000/svg"><path d="M34.585 26.83c0 7.4-6.539 13.4-14.585 13.4a14.108 14.108 0 0 1-14.57-13.4c-.215-11.184 9.293-15.645 13.4-25.06 0 0 15.755 11.26 15.755 25.06Z" stroke="#077BED" stroke-width="2.667" stroke-linejoin="round"/><path d="M22.17 14.385c.393 1.317.59 2.686.584 4.061 0 4.816-2.2 8.708-4.908 8.708-1.892 0-3.492-1.877-4.323-4.616a11.432 11.432 0 0 0-3.43 8.6A9.523 9.523 0 0 0 20 40.231a9.523 9.523 0 0 0 9.908-9.108 22.124 22.124 0 0 0-7.739-16.738Z" stroke="#077BED" stroke-width="2.667" stroke-linejoin="round"/></svg>