<svg width="40" height="40" fill="none" xmlns="http://www.w3.org/2000/svg"><g clip-path="url('#a')"><path d="M35.384 15.385h-3.077v1.538h3.077v-1.538Z" fill="#077BED"/><path d="M35.384 15.385h-3.077v1.538h3.077v-1.538ZM35.384 19.538h-3.077v1.539h3.077v-1.539ZM35.384 23.692h-3.077v1.539h3.077v-1.539Z" fill="#077BED"/><path d="M1.538 20.308S1.384 8 10.307 3.385c8-4.154 12.77.769 12.77 3.692v.154c0 1.538-1.232 2.615-2.616 2.615-1.539 0-2.615-1.23-2.615-2.615m0 0v-.308m0 .308c0 1.538-1.231 2.615-2.924 2.615-1.538 0-2.923-1.23-2.923-2.615" stroke="#077BED" stroke-width="2.5" stroke-miterlimit="10"/><path d="M14.615 10v1.846c0 10 8.154 18.154 18.154 18.154h6.461" stroke="#077BED" stroke-width="2.5" stroke-miterlimit="10" stroke-linecap="square"/><path d="M10 14.615c0 6.308 3.23 11.693 8 15.077" stroke="#077BED" stroke-width="2.5" stroke-miterlimit="10"/><path d="M39.23 30V11.538h-1.538V10H30v1.539H28.46v16.923" stroke="#077BED" stroke-width="2.5" stroke-miterlimit="10" stroke-linecap="square"/><path d="M53.906 35.222c-.641-.64-1.496-1.068-2.35-1.068-.855 0-1.71.427-2.351 1.068-.428.428-1.282.428-1.923 0-1.282-1.282-3.633-1.282-4.915 0-.213.214-.64.428-.854.428-.428 0-.642-.214-.855-.428-1.282-1.282-3.633-1.282-4.915 0-.427.428-1.282.428-1.923 0-.64-.64-1.496-1.068-2.35-1.068-.855 0-1.71.427-2.35 1.068-.428.428-1.283.428-1.924 0-1.282-1.282-3.632-1.282-4.914 0-.428.428-1.282.428-1.923 0-1.283-1.282-3.633-1.282-4.915 0-.427.428-1.282.428-1.923 0-1.282-1.282-3.633-1.282-4.915 0-.64.641-1.495.641-2.136 0-1.282-1.282-3.633-1.282-4.915 0-.427.428-1.068.428-1.71.214v2.35c1.07.214 2.351 0 3.206-.854.427-.428 1.282-.428 1.923 0C5.615 37.572 6.47 38 7.324 38c.855 0 1.71-.427 2.35-1.068.428-.428 1.283-.428 1.924 0 1.282 1.282 3.632 1.282 4.914 0 .428-.428 1.282-.428 1.924 0 1.282 1.282 3.632 1.282 4.914 0 .427-.428 1.282-.428 1.923 0 .641.64 1.496 1.068 2.35 1.068.855 0 1.71-.427 2.351-1.068.214-.214.641-.428.855-.428.427 0 .64.214.854.428 1.282 1.282 3.633 1.282 4.915 0 .427-.428 1.282-.428 1.923 0 .641.64 1.496 1.068 2.35 1.068.855 0 1.71-.427 2.35-1.068.428-.428 1.283-.428 1.924 0 .641.64 1.496 1.068 2.35 1.068.855 0 1.71-.427 2.35-1.068.215-.214.642-.428.855-.428.428 0 .642.214.855.428.641.64 1.496 1.068 2.35 1.068h.642v-2.35c.64 0-.214 0-.641-.428Z" fill="#077BED"/></g><defs><clipPath id="a"><path fill="#fff" d="M0 0h40v40H0z"/></clipPath></defs></svg>