<svg width="40" height="42" viewBox="0 0 40 42" fill="none" xmlns="http://www.w3.org/2000/svg">
<path d="M15.3845 40.1231C20.8479 40.1231 25.2768 35.6941 25.2768 30.2308C25.2768 24.7674 20.8479 20.3385 15.3845 20.3385C9.92113 20.3385 5.49219 24.7674 5.49219 30.2308C5.49219 35.6941 9.92113 40.1231 15.3845 40.1231Z" stroke="#077BED" stroke-width="2.66667" stroke-linecap="round" stroke-linejoin="round"></path>
<path d="M25.2773 27.6461H30.7235L33.6004 38.2" stroke="#077BED" stroke-width="2.66667" stroke-linecap="round" stroke-linejoin="round"></path>
<path d="M7.24609 17.2307L12.5076 10.1538H19.5846" stroke="#077BED" stroke-width="2.66667" stroke-linecap="round" stroke-linejoin="round"></path>
<path d="M15.3843 20.1077L19.5843 10.2308L23.0766 11.6154C23.784 11.9203 24.3425 12.4922 24.6306 13.2067C24.9187 13.9211 24.9131 14.7204 24.615 15.4308L21.8766 22.0154" stroke="#077BED" stroke-width="2.66667" stroke-linecap="round" stroke-linejoin="round"></path>
<path d="M27.6923 9.21538C29.6805 9.21538 31.2923 7.60361 31.2923 5.61538C31.2923 3.62716 29.6805 2.01538 27.6923 2.01538C25.7041 2.01538 24.0923 3.62716 24.0923 5.61538C24.0923 7.60361 25.7041 9.21538 27.6923 9.21538Z" stroke="#077BED" stroke-width="2.66667" stroke-linecap="round" stroke-linejoin="round"></path>
</svg>
