<svg width="18" height="18" viewBox="0 0 18 18" fill="none" xmlns="http://www.w3.org/2000/svg">
<rect x="0.9" y="0.9" width="16.2" height="16.2" rx="8.1" stroke="#B3C1D5" stroke-width="1.8"></rect>
<path d="M11.578 6.57939C11.578 7.06539 11.4816 7.45497 11.2887 7.74811C11.0959 8.04125 10.8721 8.28425 10.6176 8.47711C10.4016 8.64682 10.1856 8.79339 9.96957 8.91682C9.76128 9.04025 9.58385 9.17139 9.43728 9.31025C9.29843 9.44139 9.229 9.60339 9.229 9.79625V10.0508H7.72471V9.81939C7.72471 9.41054 7.80185 9.08654 7.95614 8.84739C8.11043 8.60825 8.29943 8.41154 8.52314 8.25725C8.74685 8.10297 8.96285 7.94868 9.17114 7.79439C9.364 7.64782 9.52985 7.48582 9.66871 7.30839C9.81528 7.13097 9.88857 6.89568 9.88857 6.60254C9.88857 6.42511 9.85 6.25539 9.77285 6.09339C9.70342 5.92368 9.56842 5.78482 9.36785 5.67682C9.16728 5.56882 8.878 5.51482 8.5 5.51482C7.906 5.51482 7.39685 5.64982 6.97257 5.91982V4.64697C7.44314 4.38468 8.05257 4.25354 8.80085 4.25354C9.71885 4.25354 10.4093 4.46954 10.8721 4.90154C11.3427 5.32582 11.578 5.88511 11.578 6.57939ZM8.5 12.7238C8.21457 12.7238 7.96771 12.6235 7.75943 12.423C7.55114 12.2147 7.447 11.9717 7.447 11.694C7.447 11.4163 7.55114 11.1771 7.75943 10.9765C7.96771 10.776 8.21457 10.6757 8.5 10.6757C8.80085 10.6757 9.05157 10.776 9.25214 10.9765C9.46043 11.1771 9.56457 11.4163 9.56457 11.694C9.56457 11.9717 9.46043 12.2147 9.25214 12.423C9.05157 12.6235 8.80085 12.7238 8.5 12.7238Z" fill="#B3C1D4"></path>
</svg>
