<svg width="18" height="18" fill="none" xmlns="http://www.w3.org/2000/svg"><rect x=".9" y=".9" width="16.2" height="16.2" rx="8.1" stroke="#B3C1D5" stroke-width="1.8"/><path d="M11.578 6.58c0 .485-.096.875-.29 1.168a2.908 2.908 0 0 1-.67.73 5.34 5.34 0 0 1-.648.439 2.978 2.978 0 0 0-.533.393.642.642 0 0 0-.208.486v.255H7.725v-.232c0-.408.077-.732.231-.972.154-.239.343-.435.567-.59.224-.154.44-.308.648-.463.193-.146.359-.308.498-.486.146-.177.22-.412.22-.705a1.17 1.17 0 0 0-.116-.51c-.07-.17-.205-.308-.405-.416-.2-.108-.49-.162-.868-.162-.594 0-1.103.135-1.527.405V4.647c.47-.262 1.08-.393 1.828-.393.918 0 1.608.216 2.071.648.47.424.706.983.706 1.677ZM8.5 12.723c-.285 0-.532-.1-.74-.301a1 1 0 0 1-.313-.729c0-.278.104-.517.312-.718.209-.2.456-.3.741-.3.3 0 .552.1.752.3.208.201.313.44.313.718a1 1 0 0 1-.313.729c-.2.2-.451.3-.752.3Z" fill="#B3C1D4"/></svg>