<svg version="1.0" xmlns="http://www.w3.org/2000/svg" width="106.667" height="106.667" viewBox="0 0 80 80"><path d="M22.3 20.2C12.4 30.3 3.4 40.1 2.4 42c-2.7 5.1-2.5 16.2.3 21.6C7.6 72.8 19 79 28.3 77.5c8.2-1.4 11.1-3.5 29.9-22.3C79 34.6 80.8 31.9 79.5 23.4c-.5-3.6-1.6-5.7-4.8-9C69.4 8.9 63.7 7.2 57 9c-3.8 1-6.9 3.6-21.3 17.8C17 45.4 15.4 47.9 18.5 54.3c2.1 4.4 7.2 7.1 11.8 6.1 2.3-.5 6.6-4 14.6-11.9 10.3-10.2 11.2-11.4 10.2-13.4-.7-1.1-1.9-2.1-2.8-2.1-.9 0-6.5 4.7-12.3 10.5C34.1 49.3 28.8 54 28.2 54c-1.4 0-4.2-2.8-4.2-4.3 0-.6 7.1-8.2 15.7-16.9C57.3 15.1 60 13.5 66.3 16.5c4.4 2 7.1 7.3 6.3 11.9-.5 2.4-4.9 7.5-19.4 21.8C37.4 65.9 33.8 69 30.2 70c-7.6 2-15.3-1-19.9-7.9-3.1-4.5-3.8-9.3-2.2-14.9 1.1-4.1 3.6-7 19.1-22.8C37 14.5 45 6.1 45 5.7c0-.8-3-3.7-3.8-3.7-.4 0-8.9 8.2-18.9 18.2z"/></svg>