<svg width="149" height="40" fill="none" xmlns="http://www.w3.org/2000/svg"><g clip-path="url('#a')"><path d="M37.981 18.274h8.143v7.108l4.51-7.108h8.942l-6.932 9.364 7.138 10.388h-9.38l-4.278-7.51v7.51h-8.143V18.274ZM35.92 37.416c-1.276.646-3.028 1.207-5.476 1.207-6.635 0-11.351-4.145-11.351-10.473 0-7.17 6.056-10.473 11.235-10.473 1.662 0 3.956.39 5.592 1.5v6.912c-1.25-1.5-3.08-2.084-4.51-2.084-3.027 0-4.483 1.95-4.483 4.352 0 2.512 1.894 3.95 4.458 3.95 1.804 0 3.375-.792 4.535-1.804v6.913ZM8.153 33.295v-2.963h.992c.786 0 2.036.147 2.036 1.476 0 1.377-1.288 1.5-2.036 1.5h-.992v-.013ZM.01 18.275v19.763h12.047c5.644 0 6.868-3.5 6.868-5.51 0-2.683-1.894-4.634-4.51-5.048v-.061c1.688-.476 3.556-1.89 3.556-4.122 0-1.524-.605-5.023-6.468-5.023H.01Zm8.143 7.51v-2.768h.76c1.418 0 1.804.707 1.804 1.39 0 .67-.386 1.378-1.803 1.378h-.76Z" fill="#0067B2"/><path d="m107.404 20.786-2.319.085-.219-.536-2.229-.159-.026-.39-2.397-.037.4.817 1.069.122-.129-.268.967.622 1.61.341 1.07.037 2.705-.342-.502-.292ZM101.477 18.872l-1.095-.147s.026-.365-.4-.56c-.425-.208-.335-.013-.335-.013l-.412-.292-.773-.122-.064-.549-.992-.049.025-.268-.786-.085-.335-.28.103-.305-.193-.28-.94-.415-.786-.293-.516-.56-.618-.5-.799-.732-1.971-.659-1.869-1.304-.76-.305-.799-.378-1.7-.866-2.513-1.329-5.553-2.548-1.585-.67c-.902-.366-1.044-.561-1.07-.67-.811-.184-1.082-.318-1.507-.72-.425.012-1.392-.512-1.65-.744 0-.012-1.636-.463-1.739-.549 0-.097-4.239-1.512-4.754-1.633-.374-.025-1.392-.208-1.533-.269-.168 0-.825-.195-1.083-.22-.889-.097-1.726-.23-2.628-.23-.644 0-1.018 0-1.585-.135-.206.122-1.533-.11-1.997.232-.528.024-1.752.28-2.087.427-.722.024-1.959.78-2.371.975-.206.097-.425.195-.644.292 1.327.44 2.834.964 2.834 1.025.103.085 1.74.536 1.74.548.257.244 1.224.768 1.649.756.425.403.696.537 1.507.72.026.11.168.304 1.057.67l1.585.659 5.553 2.548 2.513 1.329 1.7.865.8.378.76.305.618.439 1.224.451 2.757.854 3.324 1.231 1.237.402 1.25.366.593-.097.644.207.722.61.734-.232.502.085.4.488.258.293.631.182.618.073.735-.121.863.073.31.487 1.21.195.864.061.876.061.67.293.606.622.876.17 2.255.305 2.035-.231 1.327.06.477-.377Z" fill="#62BAEA"/><path d="m83.194 21.993 2.396.037.013.39 2.242.158.22.537 2.319-.086.502.293-2.706.341-1.07-.036-1.61-.342-.966-.622.129.269-1.07-.122-.4-.817ZM83.438 21.066s.026-.365-.4-.56c-.424-.208-.334-.013-.334-.013l-.425-.292-.773-.122-.065-.549-.992-.049.026-.268-.786-.085-.335-.28.103-.318-.193-.28-.902-.427-.786-.292-.515-.561-.619-.512-.786-.732-1.971-.658-1.869-1.305-.76-.305-.811-.378-1.701-.865-2.513-1.33-5.54-2.547-1.585-.67c-.902-.367-1.044-.562-1.07-.671-.811-.183-1.082-.317-1.507-.72-.425.025-1.392-.5-1.65-.744 0-.012-1.636-.463-1.739-.56 0-.086-4.239-1.512-4.754-1.634-.374-.025-1.392-.207-1.533-.268-.18 0-.825-.196-1.083-.22-.876-.097-1.726-.22-2.628-.232-.657-.012-1.018 0-1.585-.134-.206.122-1.533-.11-2.01.22-.528.024-1.74.28-2.074.427-.722.024-1.959.78-2.384.975-.36.17-.786.341-1.12.536-.156.122-2.475 1.207-2.63 1.342.04.073-2.267 1.377-2.486 1.56-.103.098-.709.33-.863.476-.155.146-.773.67-.98.768-.09.183-.682.378-.773.56-.142.183-.837.5-.953.635-.026.012-.412.317-.722.56-.129.159-.257.33-.386.488-.155.049-.773.39-.928.5.013.354.039.902-.541.793l-.683.378c.077 0-.36.61-.722 1.048-.219.244-1.21.597-1.404.854-.4.524-.915 1.011-1.314 1.523v.037h.051c0 .073.387.061.438.195.078.207-.154.39-.219.561h.052v.037c.31-.013.605-.317.85-.44.206-.073.413-.158.619-.231a82.99 82.99 0 0 0 1.095-.622c2.744-1.414 5.489-2.828 8.233-4.23 1.314-.671 2.358-1.293 3.814-2.049.348-.183 1.675-1.024 2.667-1.085 1.263-.073 2.77.232 3.183.39.386.134 1.34.585 1.83.695.141.049.425.244.489.232.052.06.953.195 1.43.353.168.098.322.183.49.28.786.22 2.744.66 3.453.867.605.17.966.5 1.262.56.413.269.503.134 1.006.366.76.073 1.224.33 1.25.354.231.097.399.183.63.28.194.024.568.305.722.366.18.036 1.418.39 1.534.451.206-.024 1.082.341 1.185.427.245.11.528.17.812.22l2.525.938 2.757.853 3.325 1.232 1.25.402 1.25.366.579-.098.657.208.722.61.734-.232.503.085.399.488.258.292.631.171.619.073.734-.122.863.073.31.488 1.21.195.864.061.876.061.67.293.606.622.876.17 2.255.317 2.035-.232 1.328.061.476-.34-1.134-.11ZM66.573 37.794a3.516 3.516 0 0 1-1.611.366c-1.147 0-1.83-.378-2.384-.854-.747-.682-1.043-1.45-1.043-2.365 0-1.11.49-1.926 1.043-2.414.657-.585 1.47-.817 2.397-.817.45 0 1.005.073 1.61.378v1.402a2.165 2.165 0 0 0-1.584-.695c-1.302 0-2.165 1.024-2.165 2.158 0 1.366 1.108 2.11 2.216 2.11.606 0 1.147-.244 1.52-.671v1.402ZM70.296 38.014h-1.275v-5.121h-1.47v-1.037h4.214v1.037h-1.469v5.12ZM73.053 31.856v6.17h1.276v-2.28h.824c.748 0 1.289-.208 1.65-.549.502-.463.54-1.134.54-1.378 0-.439-.14-1.048-.67-1.487-.476-.402-.991-.476-1.726-.476h-1.894Zm1.276 1.037h.438c.31 0 .631.012.902.195.193.134.36.366.36.695a.894.894 0 0 1-.347.72c-.27.194-.593.194-.838.194h-.515v-1.804ZM82.781 38.014h1.366l-2.744-6.292h-.967l-2.821 6.292h1.378l.58-1.293h2.629l.58 1.293Zm-2.808-2.268.94-2.22.915 2.22h-1.855ZM87.059 34.77l-1.946-2.914h1.52l1.148 1.915 1.198-1.915h1.533l-2.01 2.914 2.23 3.243H89.21l-1.43-2.255-1.508 2.255H84.74l2.319-3.243ZM95.33 31.71c-2.048 0-3.478 1.353-3.478 3.231s1.43 3.219 3.479 3.219c2.049 0 3.479-1.341 3.479-3.219s-1.43-3.23-3.48-3.23Zm0 5.352c-1.275 0-2.177-.877-2.177-2.133 0-1.244.902-2.134 2.178-2.134 1.275 0 2.177.89 2.177 2.134 0 1.256-.901 2.133-2.177 2.133ZM101.748 35.343h.463c.271 0 .593 0 .864.122a.73.73 0 0 1 .476.707c0 .244-.09.537-.399.708-.283.158-.631.17-.876.17h-.541v-1.707h.013Zm-1.263-3.487v6.17h2.19c.567 0 1.16-.086 1.662-.5.451-.378.554-.89.554-1.244 0-.317-.077-.804-.476-1.158a1.673 1.673 0 0 0-.851-.39c.181-.098.735-.415.735-1.207 0-.512-.219-1-.606-1.28-.528-.39-1.237-.39-1.598-.39h-1.61Zm1.263.976h.373c.516 0 .979.207.979.78 0 .793-.786.805-.992.805h-.36v-1.585ZM109.723 31.71c-2.049 0-3.479 1.353-3.479 3.231s1.43 3.219 3.479 3.219c2.062 0 3.479-1.341 3.479-3.219s-1.43-3.23-3.479-3.23Zm0 5.352c-1.276 0-2.178-.877-2.178-2.133 0-1.244.902-2.134 2.178-2.134 1.276 0 2.177.89 2.177 2.134-.012 1.256-.914 2.133-2.177 2.133ZM116.861 29.881c.206.512.747.537.876.537s.67-.025.877-.537l.876.33c-.258.621-.864 1.036-1.766 1.036-.901 0-1.507-.403-1.765-1.037l.902-.329Zm-.721 1.975v4.146l3.594-4.28h.89v6.304h-1.276v-4.158l-3.595 4.28h-.876v-6.28h1.263v-.012ZM125.997 31.856v2.683c0 .853-.103 1.316-.232 1.621-.194.464-.567.854-1.031.83v2.426h1.172v-1.39h3.995v1.39h1.172v-2.427h-.683v-5.133h-4.393Zm1.224 1.037h1.894v4.096h-2.629c.181-.17.374-.39.516-.731.116-.293.219-.768.219-1.72v-1.645ZM135.582 31.71c-2.048 0-3.478 1.353-3.478 3.231s1.43 3.219 3.478 3.219c2.062 0 3.479-1.341 3.479-3.219s-1.43-3.23-3.479-3.23Zm0 5.352c-1.275 0-2.177-.877-2.177-2.133 0-1.244.902-2.134 2.177-2.134 1.276 0 2.178.89 2.178 2.134 0 1.256-.902 2.133-2.178 2.133ZM140.402 38.014l1.211-6.267h.876l1.778 4.023 1.843-4.023h.889l1.095 6.267h-1.301l-.58-3.792-1.791 3.877h-.361l-1.714-3.877-.657 3.791h-1.288Z" fill="#0067B2"/></g><defs><clipPath id="a"><path fill="#fff" d="M0 0h148.143v39.214H0z"/></clipPath></defs></svg>