<svg width="149" height="40" viewBox="0 0 149 40" fill="none" xmlns="http://www.w3.org/2000/svg">
<g clip-path="url('#clip0_316_2590')">
<path d="M37.9814 18.2743H46.1245V25.3824L50.6342 18.2743H59.5761L52.6442 27.638L59.7823 38.0258H50.4022L46.1245 30.5153V38.0258H37.9814V18.2743Z" fill="#0067B2"></path>
<path d="M35.9201 37.4161C34.6445 38.0623 32.8922 38.6231 30.4441 38.6231C23.8086 38.6231 19.0928 34.4777 19.0928 28.1499C19.0928 20.9809 25.1486 17.6768 30.3282 17.6768C31.9903 17.6768 34.2838 18.0669 35.9201 19.1764V26.0894C34.6703 24.5898 32.8407 24.0046 31.4105 24.0046C28.3826 24.0046 26.9266 25.9553 26.9266 28.3572C26.9266 30.8688 28.8207 32.3075 31.3847 32.3075C33.1886 32.3075 34.7605 31.515 35.9201 30.503V37.4161Z" fill="#0067B2"></path>
<path d="M8.15335 33.2952V30.3325H9.14546C9.93143 30.3325 11.1812 30.4788 11.1812 31.8077C11.1812 33.1855 9.89277 33.3074 9.14546 33.3074H8.15335V33.2952ZM0.0102539 18.2743V38.038H12.0574C17.7009 38.038 18.9249 34.5388 18.9249 32.5271C18.9249 29.8448 17.0309 27.894 14.4153 27.4795V27.4185C16.1032 26.943 17.9714 25.5287 17.9714 23.2975C17.9714 21.7735 17.3659 18.2743 11.5034 18.2743H0.0102539ZM8.15335 25.7847V23.0171H8.91354C10.3309 23.0171 10.7174 23.7242 10.7174 24.407C10.7174 25.0776 10.3309 25.7847 8.91354 25.7847H8.15335Z" fill="#0067B2"></path>
<path d="M107.404 20.7859L105.085 20.8712L104.866 20.3347L102.637 20.1762L102.611 19.7861L100.214 19.7495L100.614 20.5664L101.683 20.6883L101.554 20.4201L102.521 21.0419L104.131 21.3833L105.201 21.4199L107.906 21.0785L107.404 20.7859Z" fill="#62BAEA"></path>
<path d="M101.477 18.8717L100.382 18.7254C100.382 18.7254 100.408 18.3596 99.9825 18.1645C99.5573 17.9573 99.6475 18.1523 99.6475 18.1523L99.2352 17.8597L98.4621 17.7378L98.3977 17.1892L97.4056 17.1404L97.4314 16.8722L96.6454 16.7868L96.3104 16.5064L96.4135 16.2016L96.2202 15.9212L95.2796 15.5066L94.4937 15.214L93.9783 14.6532L93.3598 14.1533L92.561 13.4217L90.5896 12.7634L88.7213 11.4588L87.9611 11.154L87.1623 10.776L85.4615 9.91037L82.949 8.58141L77.3957 6.03322L75.8109 5.36264C74.909 4.99687 74.7673 4.8018 74.7415 4.69207C73.9298 4.50918 73.6592 4.37507 73.234 3.97272C72.8088 3.98492 71.8424 3.46065 71.5848 3.22899C71.5848 3.2168 69.9484 2.76569 69.8453 2.68034C69.8453 2.5828 65.6063 1.1685 65.0909 1.04658C64.7172 1.02219 63.6994 0.839306 63.5576 0.778344C63.3901 0.778344 62.733 0.58327 62.4753 0.558885C61.5863 0.461347 60.7488 0.327231 59.8469 0.327231C59.2026 0.327231 58.829 0.32723 58.262 0.193115C58.0559 0.315038 56.7288 0.0833853 56.2649 0.424769C55.7366 0.449154 54.5126 0.705192 54.1776 0.8515C53.4561 0.875884 52.2191 1.6318 51.8068 1.82688C51.6007 1.92442 51.3816 2.02196 51.1626 2.1195C52.4897 2.55842 53.9972 3.08269 53.9972 3.14365C54.1003 3.22899 55.7366 3.68011 55.7366 3.6923C55.9943 3.93615 56.9607 4.46041 57.3859 4.44822C57.8111 4.85057 58.0817 4.98468 58.8934 5.16757C58.9192 5.2773 59.0609 5.47238 59.9499 5.83814L61.5347 6.49653L67.088 9.04471L69.6005 10.3737L71.3013 11.2393L72.1001 11.6173L72.8603 11.9221L73.4788 12.361L74.7028 12.8121L77.4602 13.6656L80.7844 14.897L82.0213 15.2994L83.2711 15.6651L83.8638 15.5676L84.5081 15.7749L85.2296 16.3845L85.964 16.1528L86.4665 16.2382L86.8659 16.7259L87.1236 17.0185L87.755 17.2014L88.3734 17.2745L89.1079 17.1526L89.9711 17.2257L90.2804 17.7134L91.4915 17.9085L92.3548 17.9695L93.231 18.0304L93.901 18.323L94.5065 18.9448L95.3827 19.1155L97.6375 19.4203L99.6733 19.1887L101 19.2497L101.477 18.8717Z" fill="#62BAEA"></path>
<path d="M83.1938 21.9929L85.5904 22.0295L85.6033 22.4197L87.8452 22.5781L88.0642 23.1146L90.3835 23.0293L90.886 23.3219L88.1802 23.6633L87.1108 23.6267L85.5002 23.2853L84.5339 22.6635L84.6627 22.9317L83.5933 22.8098L83.1938 21.9929Z" fill="#0067B2"></path>
<path d="M83.4384 21.0664C83.4384 21.0664 83.4641 20.7006 83.0389 20.5056C82.6137 20.2983 82.7039 20.4934 82.7039 20.4934L82.2787 20.2007L81.5057 20.0788L81.4412 19.5302L80.4491 19.4814L80.4749 19.2132L79.6889 19.1278L79.3539 18.8474L79.457 18.5304L79.2637 18.25L78.3618 17.8232L77.5758 17.5306L77.0605 16.9698L76.442 16.4577L75.656 15.7262L73.6847 15.0678L71.8164 13.7632L71.0562 13.4584L70.2445 13.0804L68.5437 12.2148L66.0312 10.8858L60.4908 8.33765L58.906 7.66707C58.0041 7.3013 57.8623 7.10623 57.8366 6.9965C57.0248 6.81361 56.7543 6.6795 56.3291 6.27715C55.9039 6.30154 54.9375 5.77727 54.6798 5.53342C54.6798 5.52123 53.0435 5.07011 52.9404 4.97258C52.9404 4.88723 48.7014 3.46073 48.186 3.33881C47.8123 3.31443 46.7944 3.13154 46.6527 3.07058C46.4723 3.07058 45.8281 2.8755 45.5704 2.85112C44.6942 2.75358 43.8438 2.63166 42.9419 2.61947C42.2848 2.60727 41.924 2.61947 41.3571 2.48535C41.151 2.60727 39.8238 2.37562 39.3471 2.70481C38.8188 2.7292 37.6077 2.98523 37.2727 3.13154C36.5511 3.15593 35.3142 3.91185 34.889 4.10693C34.5282 4.27762 34.1031 4.44831 33.7681 4.64338C33.6134 4.76531 31.2942 5.85042 31.1396 5.98454C31.1782 6.05769 28.8719 7.36227 28.6528 7.54515C28.5498 7.64269 27.9442 7.87434 27.7896 8.02065C27.635 8.16695 27.0165 8.69122 26.8103 8.78876C26.7202 8.97165 26.1275 9.16672 26.0373 9.34961C25.8955 9.53249 25.1998 9.84949 25.0838 9.98361C25.058 9.9958 24.6715 10.3006 24.3623 10.5445C24.2334 10.703 24.1046 10.8736 23.9757 11.0321C23.8211 11.0809 23.2026 11.4223 23.048 11.532C23.0609 11.8856 23.0867 12.4343 22.5069 12.3245L21.824 12.7025C21.9013 12.7025 21.4632 13.3121 21.1025 13.751C20.8834 13.9949 19.8913 14.3484 19.698 14.6045C19.2986 15.1287 18.7832 15.6164 18.3838 16.1285V16.1651H18.4353C18.4353 16.2382 18.8219 16.2261 18.8734 16.3602C18.9507 16.5674 18.7188 16.7503 18.6544 16.921H18.7059V16.9576C19.0151 16.9454 19.3115 16.6406 19.5563 16.5187C19.7624 16.4455 19.9686 16.3602 20.1748 16.287C20.5484 16.0797 20.9092 15.8725 21.2699 15.6652C24.0144 14.2509 26.7588 12.8366 29.5032 11.4345C30.8175 10.7639 31.8611 10.1421 33.3171 9.38618C33.665 9.2033 34.9921 8.36203 35.9842 8.30107C37.2469 8.22792 38.7544 8.53272 39.1667 8.69122C39.5533 8.82534 40.5067 9.27645 40.9963 9.38618C41.1381 9.43495 41.4215 9.63003 41.486 9.61784C41.5375 9.6788 42.4394 9.81291 42.9162 9.97141C43.0837 10.069 43.2383 10.1543 43.4058 10.2518C44.1917 10.4713 46.1502 10.9102 46.8589 11.1175C47.4644 11.2882 47.8252 11.6174 48.1215 11.6783C48.5339 11.9466 48.6241 11.8124 49.1266 12.0441C49.8867 12.1173 50.3506 12.3733 50.3764 12.3977C50.6083 12.4952 50.7758 12.5806 51.0077 12.6781C51.201 12.7025 51.5746 12.9829 51.7293 13.0439C51.9096 13.0804 53.1466 13.434 53.2625 13.495C53.4687 13.4706 54.3448 13.8364 54.4479 13.9217C54.6927 14.0314 54.9762 14.0924 55.2596 14.1412L57.785 15.08L60.5423 15.9334L63.8666 17.1649L65.1164 17.5672L66.3662 17.933L66.946 17.8354L67.6031 18.0427L68.3247 18.6523L69.0591 18.4207L69.5616 18.506L69.961 18.9937L70.2187 19.2863L70.8501 19.457L71.4685 19.5302L72.203 19.4082L73.0662 19.4814L73.3755 19.9691L74.5866 20.1642L75.4499 20.2251L76.326 20.2861L76.996 20.5787L77.6016 21.2005L78.4778 21.3712L80.7326 21.6882L82.7684 21.4565L84.0955 21.5175L84.5722 21.1761L83.4384 21.0664Z" fill="#0067B2"></path>
<path d="M66.5726 37.794C66.186 37.9891 65.6578 38.1598 64.962 38.1598C63.8152 38.1598 63.1324 37.7818 62.5783 37.3063C61.831 36.6236 61.5347 35.8555 61.5347 34.941C61.5347 33.8315 62.0243 33.0147 62.5783 32.527C63.2354 31.9417 64.0472 31.7101 64.9749 31.7101C65.4258 31.7101 65.9799 31.7832 66.5855 32.088V33.4902C65.9928 32.844 65.2454 32.7952 65.0006 32.7952C63.6993 32.7952 62.836 33.8193 62.836 34.9532C62.836 36.3188 63.9441 37.0625 65.0522 37.0625C65.6578 37.0625 66.1989 36.8187 66.5726 36.3919V37.794Z" fill="#0067B2"></path>
<path d="M70.2962 38.0135H69.0206V32.8928H67.5518V31.8564H71.765V32.8928H70.2962V38.0135Z" fill="#0067B2"></path>
<path d="M73.0532 31.8564V38.0257H74.3288V35.7458H75.1534C75.9007 35.7458 76.4419 35.5385 76.8027 35.1971C77.3052 34.7338 77.3438 34.0632 77.3438 33.8194C77.3438 33.3805 77.2021 32.7709 76.6738 32.3319C76.1971 31.9296 75.6817 31.8564 74.9473 31.8564H73.0532ZM74.3288 32.8928H74.7669C75.0761 32.8928 75.3982 32.905 75.6688 33.0879C75.8621 33.222 76.0296 33.4536 76.0296 33.7828C76.0296 34.0511 75.9136 34.3315 75.6817 34.5022C75.4111 34.6972 75.089 34.6972 74.8442 34.6972H74.3288V32.8928Z" fill="#0067B2"></path>
<path d="M82.7815 38.0136H84.1473L81.4028 31.7224H80.4365L77.6147 38.0136H78.9934L79.5732 36.7213H82.2017L82.7815 38.0136ZM79.9726 35.7459L80.9132 33.5269L81.828 35.7459H79.9726Z" fill="#0067B2"></path>
<path d="M87.059 34.7704L85.1134 31.8564H86.6338L87.7805 33.7706L88.9788 31.8564H90.5121L88.5021 34.7704L90.7311 38.0135H89.2107L87.7805 35.758L86.273 38.0135H84.7397L87.059 34.7704Z" fill="#0067B2"></path>
<path d="M95.3309 31.7101C93.2822 31.7101 91.8521 33.0634 91.8521 34.941C91.8521 36.8187 93.2822 38.1598 95.3309 38.1598C97.3796 38.1598 98.8098 36.8187 98.8098 34.941C98.8098 33.0634 97.3796 31.7101 95.3309 31.7101ZM95.3309 37.0625C94.0553 37.0625 93.1534 36.1847 93.1534 34.9288C93.1534 33.6852 94.0553 32.7952 95.3309 32.7952C96.6065 32.7952 97.5084 33.6852 97.5084 34.9288C97.5084 36.1847 96.6065 37.0625 95.3309 37.0625Z" fill="#0067B2"></path>
<path d="M101.748 35.3434H102.211C102.482 35.3434 102.804 35.3434 103.075 35.4654C103.487 35.6361 103.551 35.9774 103.551 36.1725C103.551 36.4164 103.461 36.709 103.152 36.8797C102.869 37.0382 102.521 37.0504 102.276 37.0504H101.735V35.3434H101.748ZM100.485 31.8564V38.0257H102.675C103.242 38.0257 103.835 37.9404 104.337 37.5259C104.788 37.1479 104.891 36.6358 104.891 36.2822C104.891 35.9652 104.814 35.4776 104.415 35.124C104.247 34.9777 103.989 34.807 103.564 34.7338C103.745 34.6363 104.299 34.3193 104.299 33.5268C104.299 33.0147 104.08 32.527 103.693 32.2466C103.165 31.8564 102.456 31.8564 102.095 31.8564H100.485ZM101.748 32.8318H102.121C102.637 32.8318 103.1 33.0391 103.1 33.6121C103.1 34.4046 102.314 34.4168 102.108 34.4168H101.748V32.8318Z" fill="#0067B2"></path>
<path d="M109.723 31.7101C107.674 31.7101 106.244 33.0634 106.244 34.941C106.244 36.8187 107.674 38.1598 109.723 38.1598C111.785 38.1598 113.202 36.8187 113.202 34.941C113.202 33.0634 111.772 31.7101 109.723 31.7101ZM109.723 37.0625C108.447 37.0625 107.545 36.1847 107.545 34.9288C107.545 33.6852 108.447 32.7952 109.723 32.7952C110.999 32.7952 111.9 33.6852 111.9 34.9288C111.888 36.1847 110.986 37.0625 109.723 37.0625Z" fill="#0067B2"></path>
<path d="M116.861 29.8812C117.067 30.3933 117.608 30.4177 117.737 30.4177C117.866 30.4177 118.407 30.3933 118.614 29.8812L119.49 30.2104C119.232 30.8322 118.626 31.2468 117.724 31.2468C116.823 31.2468 116.217 30.8444 115.959 30.2104L116.861 29.8812ZM116.14 31.8564V36.0018L119.734 31.7223H120.624V38.0257H119.348V33.8681L115.753 38.1476H114.877V31.8686H116.14V31.8564Z" fill="#0067B2"></path>
<path d="M125.997 31.8564V34.5387C125.997 35.3922 125.894 35.8555 125.765 36.1603C125.571 36.6236 125.198 37.0138 124.734 36.9894V39.4157H125.906V38.0257H129.901V39.4157H131.073V36.9894H130.39V31.8564H125.997ZM127.221 32.8928H129.115V36.9894H126.486C126.667 36.8187 126.86 36.5992 127.002 36.2579C127.118 35.9652 127.221 35.4897 127.221 34.5387V32.8928Z" fill="#0067B2"></path>
<path d="M135.582 31.7101C133.534 31.7101 132.104 33.0634 132.104 34.941C132.104 36.8187 133.534 38.1598 135.582 38.1598C137.644 38.1598 139.061 36.8187 139.061 34.941C139.061 33.0634 137.631 31.7101 135.582 31.7101ZM135.582 37.0625C134.307 37.0625 133.405 36.1847 133.405 34.9288C133.405 33.6852 134.307 32.7952 135.582 32.7952C136.858 32.7952 137.76 33.6852 137.76 34.9288C137.76 36.1847 136.858 37.0625 135.582 37.0625Z" fill="#0067B2"></path>
<path d="M140.402 38.0135L141.613 31.7467H142.489L144.267 35.7702L146.11 31.7467H146.999L148.094 38.0135H146.793L146.213 34.2217L144.422 38.0989H144.061L142.347 34.2217L141.69 38.0135H140.402Z" fill="#0067B2"></path>
</g>
<defs>
<clipPath id="clip0_316_2590">
<rect width="148.143" height="39.2143" fill="white"></rect>
</clipPath>
</defs>
</svg>
