<svg width="155" height="23" viewBox="0 0 155 23" fill="none" xmlns="http://www.w3.org/2000/svg">
<g clip-path="url('#clip0_316_2613')">
<path d="M18.1005 4.3335H5.81836V18.5721H18.1005V4.3335Z" fill="white"></path>
<path d="M12.0518 0C5.39781 0 0.000488281 5.15807 0.000488281 11.4976C0.000488281 17.8563 5.39781 23 12.0518 23C18.6808 23 24.0782 17.8563 24.0782 11.4976C24.0782 5.15807 18.6808 0 12.0518 0ZM13.609 18.3318V6.49802H12.5025C10.4697 6.49802 9.40325 7.48256 9.40325 8.93777C9.40325 10.5947 10.1392 11.3583 11.6613 12.3429L12.913 13.1545L9.2981 18.3318H6.60945L9.85386 13.702C7.98632 12.4245 6.9399 11.1806 6.9399 9.07705C6.9399 6.43558 8.84749 4.64418 12.4824 4.64418H16.0923V18.3318H13.609Z" fill="#FC3F1D"></path>
<path d="M29.3452 4.3125V17.8824H31.8158V11.9878H36.4331V17.8824H38.9037V4.3125H36.4331V10.1499H31.8158V4.3125H29.3452ZM48.8109 17.2158V15.3255C48.0538 15.8112 46.7886 16.2397 45.6031 16.2397C43.8249 16.2397 43.1525 15.4398 43.0479 13.8019H48.9105V12.5735C48.9105 9.15481 47.3365 7.86924 44.9108 7.86924C41.9471 7.86924 40.5375 10.0357 40.5375 13.002C40.5375 16.4159 42.2957 18.0776 45.3989 18.0776C46.953 18.0776 48.0936 17.6872 48.8109 17.2158ZM44.8659 9.70237C46.0713 9.70237 46.4399 10.6594 46.4399 11.8878V12.0831H43.0479C43.1126 10.5213 43.7054 9.70237 44.8659 9.70237ZM59.5698 16.0445H58.4889V8.06446H51.401V8.90246C51.401 11.3022 51.2416 14.4066 50.3799 16.0445H49.6277V20.125H51.8742V17.8824H57.3233V20.125H59.5698V16.0445ZM56.0582 16.0445H52.6263C53.3037 14.5637 53.488 11.8878 53.488 10.188V9.89758H56.0582V16.0445ZM65.0439 17.8824C67.4546 17.8824 68.8842 16.9063 68.8842 15.0303C68.8842 13.7448 68.0673 13.002 66.6975 12.7687C67.8033 12.4735 68.4957 11.7307 68.4957 10.5594C68.4957 8.88341 67.3301 8.06446 65.0837 8.06446H60.7951V17.8824H65.0439ZM64.7998 9.77855C65.6764 9.77855 66.1696 10.1499 66.1696 10.9118C66.1696 11.5974 65.6366 12.0069 64.7151 12.0069H63.166V9.77855H64.7998ZM64.8396 13.7019C65.8807 13.7019 66.4336 14.0543 66.4336 14.8732C66.4336 15.7922 65.8209 16.1635 64.8396 16.1635H63.166V13.7019H64.8396ZM70.5179 8.06446V17.8824H72.6797L76.4005 11.8117V17.8824H78.7465V8.06446H76.5848L72.864 14.1352V8.06446H70.5179ZM82.547 17.8824L85.7747 13.0591V17.8824H88.2004V13.0591L91.4281 17.8824H94.1875L90.6112 12.5735L93.7143 8.06446H91.2637L88.2004 12.5925V8.06446H85.7747V12.5925L82.7114 8.06446H80.196L83.3639 12.6687L79.8722 17.8824H82.547ZM95.3083 8.06446V17.8824H97.475L101.191 11.8117V17.8824H103.542V8.06446H101.375L97.6593 14.1352V8.06446H95.3083ZM114.341 17.8824H116.712L116.672 8.06446H113.344L111.118 14.6018L109.116 8.06446H105.584V17.8824H107.646V10.5404L109.873 17.8824H111.85L114.341 10.5404V17.8824ZM122.878 7.86924C120.203 7.86924 118.345 9.68332 118.345 12.9829C118.345 16.2635 120.203 18.0776 122.878 18.0776C125.553 18.0776 127.411 16.2635 127.411 12.9639C127.411 9.68332 125.553 7.86924 122.878 7.86924ZM122.878 16.2397C121.533 16.2397 120.856 15.2446 120.856 12.9829C120.856 10.6975 121.533 9.70237 122.878 9.70237C124.228 9.70237 124.9 10.6975 124.9 12.9639C124.9 15.2446 124.228 16.2397 122.878 16.2397ZM133.458 18.0776C134.583 18.0776 135.375 17.8824 135.968 17.4729V15.5779C135.355 15.9874 134.623 16.2397 133.602 16.2397C131.864 16.2397 131.151 14.9542 131.151 12.9211C131.151 10.7927 132.028 9.70237 133.622 9.70237C134.558 9.70237 135.48 10.0166 135.968 10.3071V8.33586C135.46 8.06446 134.558 7.86924 133.358 7.86924C130.25 7.86924 128.641 9.99281 128.641 12.9829C128.641 16.2635 130.21 18.0776 133.458 18.0776ZM145.038 9.89758V8.06446H136.889V9.89758H139.749V17.8824H142.179V9.89758H145.038ZM146.468 8.06446V17.8824H150.124C152.535 17.8824 154.248 16.7111 154.248 14.4066C154.248 12.2211 152.714 11.0689 150.164 11.0689H148.899V8.06446H146.468ZM149.979 16.0445H148.899V12.902H150.039C151.105 12.902 151.738 13.3543 151.738 14.4828C151.738 15.616 151.04 16.0445 149.979 16.0445Z" fill="black"></path>
</g>
<defs>
<clipPath id="clip0_316_2613">
<rect width="155" height="23" fill="white"></rect>
</clipPath>
</defs>
</svg>
