<svg width="155" height="23" fill="none" xmlns="http://www.w3.org/2000/svg"><g clip-path="url('#a')"><path d="M18.1 4.333H5.819v14.24h12.283V4.332Z" fill="#fff"/><path d="M12.052 0C5.398 0 0 5.158 0 11.498 0 17.856 5.398 23 12.052 23c6.629 0 12.026-5.144 12.026-11.502C24.078 5.158 18.681 0 12.052 0Zm1.557 18.332V6.498h-1.107c-2.032 0-3.099.985-3.099 2.44 0 1.657.736 2.42 2.258 3.405l1.252.812-3.615 5.177H6.61l3.245-4.63C7.986 12.425 6.94 11.181 6.94 9.077c0-2.641 1.907-4.433 5.542-4.433h3.61v13.688H13.61Z" fill="#FC3F1D"/><path d="M29.345 4.313v13.57h2.47v-5.895h4.618v5.894h2.47V4.312h-2.47v5.838h-4.617V4.312h-2.47Zm19.466 12.903v-1.89c-.757.485-2.022.914-3.208.914-1.778 0-2.45-.8-2.555-2.438h5.862v-1.229c0-3.418-1.573-4.704-4-4.704-2.963 0-4.372 2.167-4.372 5.133 0 3.414 1.758 5.076 4.86 5.076 1.555 0 2.696-.39 3.413-.862Zm-3.945-7.514c1.205 0 1.574.957 1.574 2.186v.195h-3.392c.065-1.562.657-2.38 1.818-2.38Zm14.704 6.342h-1.081v-7.98H51.4v.838c0 2.4-.16 5.505-1.021 7.143h-.752v4.08h2.246v-2.243h5.45v2.243h2.246v-4.08Zm-3.512 0h-3.432c.678-1.48.862-4.156.862-5.856v-.29h2.57v6.146Zm8.986 1.838c2.41 0 3.84-.976 3.84-2.852 0-1.285-.817-2.028-2.186-2.261 1.105-.296 1.798-1.038 1.798-2.21 0-1.676-1.166-2.495-3.412-2.495h-4.289v9.818h4.249ZM64.8 9.78c.876 0 1.37.37 1.37 1.133 0 .685-.533 1.095-1.455 1.095h-1.549V9.779H64.8Zm.04 3.923c1.04 0 1.594.352 1.594 1.171 0 .92-.613 1.29-1.594 1.29h-1.674v-2.461h1.674Zm5.678-5.638v9.818h2.162l3.72-6.07v6.07h2.346V8.064h-2.161l-3.721 6.071v-6.07h-2.346Zm12.029 9.818 3.228-4.823v4.823H88.2V13.06l3.228 4.823h2.76l-3.577-5.309 3.103-4.509h-2.45L88.2 12.592V8.064h-2.425v4.528L82.71 8.064h-2.515l3.168 4.605-3.492 5.213h2.675Zm12.761-9.818v9.818h2.167l3.716-6.07v6.07h2.351V8.064h-2.167l-3.716 6.071v-6.07h-2.35Zm19.033 9.818h2.371l-.04-9.818h-3.328l-2.226 6.538-2.002-6.538h-3.532v9.818h2.062V10.54l2.227 7.342h1.977l2.491-7.342v7.342Zm8.537-10.013c-2.675 0-4.533 1.814-4.533 5.114 0 3.28 1.858 5.095 4.533 5.095 2.675 0 4.533-1.814 4.533-5.114 0-3.28-1.858-5.095-4.533-5.095Zm0 8.37c-1.345 0-2.022-.994-2.022-3.256 0-2.286.677-3.28 2.022-3.28 1.35 0 2.022.995 2.022 3.26 0 2.282-.672 3.277-2.022 3.277Zm10.58 1.839c1.125 0 1.917-.196 2.51-.605v-1.895c-.613.41-1.345.662-2.366.662-1.738 0-2.451-1.286-2.451-3.319 0-2.128.877-3.219 2.471-3.219.936 0 1.858.315 2.346.605V8.336c-.508-.272-1.41-.467-2.61-.467-3.108 0-4.717 2.124-4.717 5.114 0 3.28 1.569 5.095 4.817 5.095Zm11.58-8.18V8.064h-8.149v1.834h2.86v7.984h2.43V9.898h2.859Zm1.43-1.834v9.818h3.656c2.411 0 4.124-1.17 4.124-3.475 0-2.186-1.534-3.338-4.084-3.338h-1.265V8.064h-2.431Zm3.511 7.98h-1.08v-3.142h1.14c1.066 0 1.699.452 1.699 1.58 0 1.134-.698 1.563-1.759 1.563Z" fill="#000"/></g><defs><clipPath id="a"><path fill="#fff" d="M0 0h155v23H0z"/></clipPath></defs></svg>