<svg width="110" height="60" viewBox="0 0 110 60" fill="none" xmlns="http://www.w3.org/2000/svg">
<path d="M12 30H0V0H110V30H99.5C91.2157 30 84.5 36.7157 84.5 45C84.5 53.2843 77.7843 60 69.5 60H42C33.7157 60 27 53.2843 27 45C27 36.7157 20.2843 30 12 30Z" fill="white"/>
<rect x="34" y="15.5" width="42" height="39" rx="15" fill="#1E4BD2"/>
<path d="M56.0225 36.66V40.86H54.0025V36.66H50.0625V34.86H54.0025V30.66H56.0225V34.86H59.9625V36.66H56.0225Z" fill="#1E4BD2"/>
<path d="M56 25.5C56 24.9477 55.5523 24.5 55 24.5C54.4477 24.5 54 24.9477 54 25.5L56 25.5ZM54.2929 42.2071C54.6834 42.5976 55.3166 42.5976 55.7071 42.2071L62.0711 35.8431C62.4616 35.4526 62.4616 34.8195 62.0711 34.4289C61.6805 34.0384 61.0474 34.0384 60.6569 34.4289L55 40.0858L49.3431 34.4289C48.9526 34.0384 48.3195 34.0384 47.9289 34.4289C47.5384 34.8195 47.5384 35.4526 47.9289 35.8431L54.2929 42.2071ZM54 25.5L54 41.5L56 41.5L56 25.5L54 25.5Z" fill="white"/>
</svg>
