<svg width="15" height="15" viewBox="0 0 15 15" fill="none" xmlns="http://www.w3.org/2000/svg">
<circle cx="7.5" cy="7.5" r="7.5" fill="#00AAFF"/>
<path d="M9.84 6.28C9.84 6.676 9.774 7.006 9.642 7.27C9.51 7.534 9.345 7.75767 9.147 7.941C8.95633 8.117 8.74733 8.26733 8.52 8.392C8.29267 8.51667 8.08 8.64133 7.882 8.766C7.69133 8.88333 7.53 9.01533 7.398 9.162C7.266 9.30867 7.2 9.48833 7.2 9.701V9.899H6.375V9.712C6.375 9.36 6.43367 9.074 6.551 8.854C6.67567 8.634 6.82967 8.45067 7.013 8.304C7.20367 8.15 7.40533 8.018 7.618 7.908C7.83067 7.79067 8.02867 7.66233 8.212 7.523C8.40267 7.38367 8.55667 7.21867 8.674 7.028C8.79867 6.83 8.861 6.577 8.861 6.269C8.861 6.093 8.839 5.92433 8.795 5.763C8.75833 5.59433 8.68133 5.44767 8.564 5.323C8.44667 5.191 8.278 5.08467 8.058 5.004C7.84533 4.92333 7.56667 4.883 7.222 4.883C6.78933 4.883 6.44467 4.93067 6.188 5.026C5.93133 5.12133 5.737 5.213 5.605 5.301V4.432C5.781 4.33667 6.001 4.245 6.265 4.157C6.529 4.06167 6.881 4.014 7.321 4.014C7.761 4.014 8.13867 4.07267 8.454 4.19C8.77667 4.30733 9.037 4.46867 9.235 4.674C9.44033 4.87933 9.59067 5.12133 9.686 5.4C9.78867 5.67133 9.84 5.96467 9.84 6.28ZM6.826 12.066C6.628 12.066 6.463 12.0037 6.331 11.879C6.20633 11.747 6.144 11.5857 6.144 11.395C6.144 11.2043 6.20633 11.043 6.331 10.911C6.463 10.779 6.628 10.713 6.826 10.713C7.024 10.713 7.18533 10.779 7.31 10.911C7.442 11.043 7.508 11.2043 7.508 11.395C7.508 11.5857 7.442 11.747 7.31 11.879C7.18533 12.0037 7.024 12.066 6.826 12.066Z" fill="white"/>
</svg>
