<svg width="40" height="40" viewBox="0 0 40 40" fill="none" xmlns="http://www.w3.org/2000/svg">
<g clip-path="url(#clip0_240_28414)">
<path d="M35.3836 15.3846H32.3066V16.9231H35.3836V15.3846Z" fill="#077BED"/>
<path d="M35.3836 15.3846H32.3066V16.9231H35.3836V15.3846Z" fill="#077BED"/>
<path d="M35.3836 19.5384H32.3066V21.0769H35.3836V19.5384Z" fill="#077BED"/>
<path d="M35.3836 23.6923H32.3066V25.2308H35.3836V23.6923Z" fill="#077BED"/>
<path d="M1.53777 20.3077C1.53777 20.3077 1.38392 8 10.307 3.38461C18.307 -0.769233 23.0762 4.15384 23.0762 7.07692V7.23077C23.0762 8.76923 21.8455 9.84615 20.4608 9.84615C18.9224 9.84615 17.8455 8.61538 17.8455 7.23077M17.8455 7.23077V6.92307M17.8455 7.23077C17.8455 8.76923 16.6147 9.84615 14.9224 9.84615C13.3839 9.84615 11.9993 8.61538 11.9993 7.23077" stroke="#077BED" stroke-width="2.5" stroke-miterlimit="10"/>
<path d="M14.6147 10V11.8462C14.6147 21.8462 22.7686 30 32.7686 30H39.2301" stroke="#077BED" stroke-width="2.5" stroke-miterlimit="10" stroke-linecap="square"/>
<path d="M10 14.6153C10 20.923 13.2308 26.3076 18 29.6923" stroke="#077BED" stroke-width="2.5" stroke-miterlimit="10"/>
<path d="M39.2307 30V11.5385H37.6922V10H29.9999V11.5385H28.4614V28.4615" stroke="#077BED" stroke-width="2.5" stroke-miterlimit="10" stroke-linecap="square"/>
<path d="M53.9057 35.2222C53.2646 34.5812 52.4099 34.1538 51.5552 34.1538C50.7005 34.1538 49.8458 34.5812 49.2048 35.2222C48.7774 35.6496 47.9227 35.6496 47.2817 35.2222C45.9997 33.9402 43.6492 33.9402 42.3672 35.2222C42.1535 35.4359 41.7261 35.6496 41.5125 35.6496C41.0851 35.6496 40.8714 35.4359 40.6578 35.2222C39.3757 33.9402 37.0253 33.9402 35.7432 35.2222C35.3159 35.6496 34.4612 35.6496 33.8201 35.2222C33.1791 34.5812 32.3244 34.1538 31.4697 34.1538C30.615 34.1538 29.7603 34.5812 29.1193 35.2222C28.6919 35.6496 27.8372 35.6496 27.1962 35.2222C25.9141 33.9402 23.5637 33.9402 22.2817 35.2222C21.8543 35.6496 20.9996 35.6496 20.3586 35.2222C19.0765 33.9402 16.7261 33.9402 15.444 35.2222C15.0167 35.6496 14.162 35.6496 13.5209 35.2222C12.2389 33.9402 9.88846 33.9402 8.60641 35.2222C7.96538 35.8632 7.11068 35.8632 6.46965 35.2222C5.18759 33.9402 2.83716 33.9402 1.55511 35.2222C1.12776 35.6496 0.48673 35.6496 -0.154297 35.4359V37.7863C0.914082 38 2.19614 37.7863 3.05084 36.9316C3.47819 36.5043 4.33289 36.5043 4.97392 36.9316C5.61495 37.5726 6.46965 38 7.32435 38C8.17906 38 9.03376 37.5726 9.67478 36.9316C10.1021 36.5043 10.9568 36.5043 11.5979 36.9316C12.8799 38.2137 15.2304 38.2137 16.5124 36.9316C16.9398 36.5043 17.7945 36.5043 18.4355 36.9316C19.7175 38.2137 22.068 38.2137 23.35 36.9316C23.7774 36.5043 24.6321 36.5043 25.2731 36.9316C25.9141 37.5726 26.7688 38 27.6235 38C28.4782 38 29.3329 37.5726 29.974 36.9316C30.1877 36.7179 30.615 36.5043 30.8287 36.5043C31.256 36.5043 31.4697 36.7179 31.6834 36.9316C32.9654 38.2137 35.3159 38.2137 36.5979 36.9316C37.0253 36.5043 37.88 36.5043 38.521 36.9316C39.162 37.5726 40.0167 38 40.8714 38C41.7261 38 42.5808 37.5726 43.2219 36.9316C43.6492 36.5043 44.5039 36.5043 45.145 36.9316C45.786 37.5726 46.6407 38 47.4954 38C48.3501 38 49.2048 37.5726 49.8458 36.9316C50.0595 36.7179 50.4868 36.5043 50.7005 36.5043C51.1279 36.5043 51.3415 36.7179 51.5552 36.9316C52.1962 37.5726 53.051 38 53.9057 38C54.1193 38 54.333 38 54.5467 38V35.6496C55.1877 35.6496 54.333 35.6496 53.9057 35.2222Z" fill="#077BED"/>
</g>
<defs>
<clipPath id="clip0_240_28414">
<rect width="40" height="40" fill="white"/>
</clipPath>
</defs>
</svg>
