<svg width="40" height="42" viewBox="0 0 40 42" fill="none" xmlns="http://www.w3.org/2000/svg">
<path d="M25.2006 22.4154C32.8929 23.5231 38.4314 27.0308 38.4314 31.1385C38.4314 36.1538 30.1852 40.2308 19.9698 40.2308C9.75445 40.2308 1.53906 36.1538 1.53906 31.1385C1.53906 27.5692 5.70829 24.4769 11.8006 22.9846" stroke="#077BED" stroke-width="2.66667" stroke-miterlimit="10"/>
<path d="M20 35.4154C26.1538 35.4154 31.2 33.5077 31.2 31.1385C31.2 29.4615 28.6923 28.0615 25.0462 27.3077C25.0462 27.3077 25.0462 12.2462 28.2615 6.49231C31.2 1.29231 38.4615 1.78462 38.4615 1.78462" stroke="#077BED" stroke-width="2.66667" stroke-linejoin="round"/>
<path d="M13.0316 1.76923C15.9787 1.79878 18.8832 2.47633 21.5392 3.75385C18.1923 6.86397 15.573 10.6745 13.8684 14.9135C12.1637 19.1525 11.4157 23.7155 11.6777 28.2769C9.89309 29.0308 8.80078 30.0308 8.80078 31.1385C8.80078 32.2462 9.93924 33.2923 11.8777 34.0615" stroke="#077BED" stroke-width="2.66667" stroke-linejoin="round"/>
<path d="M18.2309 30.4923C18.2309 30.4923 17.3386 19.8769 21.4771 12.0308" stroke="#077BED" stroke-width="2.66667" stroke-miterlimit="10"/>
</svg>
