<svg width="42" height="42" viewBox="0 0 42 42" fill="none" xmlns="http://www.w3.org/2000/svg">
<path d="M21.3686 20.2308C21.3686 20.2308 19.2917 10.7231 22.9071 10.4C25.984 10.1077 27.2609 16.0616 25.6148 20.2308H21.3686Z" fill="#077BED" stroke="#077BED" stroke-width="2.66667" stroke-miterlimit="10"/>
<path d="M16.1996 20.2308C16.1996 20.2308 18.2765 10.7231 14.6611 10.4C11.5688 10.1077 10.2304 16.1846 11.9688 20.2308H16.1996Z" fill="#077BED" stroke="#077BED" stroke-width="2.66667" stroke-miterlimit="10"/>
<path d="M21.2928 23.3077H25.4774C25.4774 23.3077 25.8928 27.1538 23.3851 27.1538C20.8774 27.1538 21.2928 23.3077 21.2928 23.3077Z" fill="#077BED" stroke="#077BED" stroke-width="2.66667" stroke-miterlimit="10"/>
<path d="M16.2615 23.3077H12.0768C12.0768 23.3077 11.6768 27.1538 14.1691 27.1538C16.6615 27.1538 16.2615 23.3077 16.2615 23.3077Z" fill="#077BED" stroke="#077BED" stroke-width="2.66667" stroke-miterlimit="10"/>
<path d="M18.7844 35.8615C28.1988 35.8615 35.8306 28.2297 35.8306 18.8154C35.8306 9.40106 28.1988 1.76924 18.7844 1.76924C9.37011 1.76924 1.73828 9.40106 1.73828 18.8154C1.73828 28.2297 9.37011 35.8615 18.7844 35.8615Z" stroke="#077BED" stroke-width="2.66667" stroke-miterlimit="10"/>
<path d="M30.939 30.7692L40.2774 40.2308" stroke="#077BED" stroke-width="2.66667" stroke-miterlimit="10"/>
</svg>
