<svg width="40" height="42" viewBox="0 0 40 42" fill="none" xmlns="http://www.w3.org/2000/svg">
<path d="M33.0772 15.3539L20.0003 22.5693L6.92334 15.3539L20.0003 7.69234L33.0772 15.3539Z" stroke="#077BED" stroke-width="2.66667" stroke-linecap="round" stroke-linejoin="round"/>
<path d="M20.0003 31.7692L6.92334 24.5538V15.3538L20.0003 22.5692V31.7692Z" stroke="#077BED" stroke-width="2.66667" stroke-linecap="round" stroke-linejoin="round"/>
<path d="M20 31.7692L33.0769 24.5538V15.3538L20 22.5692V31.7692Z" fill="#077BED" stroke="#077BED" stroke-width="2.66667" stroke-linecap="round" stroke-linejoin="round"/>
<path d="M8.46094 9.46155V1.76924" stroke="#077BED" stroke-width="2.66667" stroke-linecap="round" stroke-linejoin="round"/>
<path d="M31.5376 9.46155V1.76924" stroke="#077BED" stroke-width="2.66667" stroke-linecap="round" stroke-linejoin="round"/>
<path d="M25.3843 6.38463V1.76924" stroke="#077BED" stroke-width="2.66667" stroke-linecap="round" stroke-linejoin="round"/>
<path d="M14.6147 6.38463V1.76924" stroke="#077BED" stroke-width="2.66667" stroke-linecap="round" stroke-linejoin="round"/>
<path d="M7.1381 29.7385L1.47656 32.9231L7.1381 35.1539V39.4L14.4612 36.9231L19.9996 40.2308" stroke="#077BED" stroke-width="2.66667" stroke-linecap="round" stroke-linejoin="round"/>
<path d="M32.8615 29.7385L38.5231 32.9231L32.8615 35.1539V39.4L25.5385 36.9231L20 40.2308" stroke="#077BED" stroke-width="2.66667" stroke-linecap="round" stroke-linejoin="round"/>
</svg>
