<?xml version="1.0" standalone="no"?>
<!DOCTYPE svg PUBLIC "-//W3C//DTD SVG 20010904//EN"
 "http://www.w3.org/TR/2001/REC-SVG-20010904/DTD/svg10.dtd">
<svg version="1.0" xmlns="http://www.w3.org/2000/svg"
 width="80.000000pt" height="80.000000pt" viewBox="0 0 80.000000 80.000000"
 preserveAspectRatio="xMidYMid meet">

<g transform="translate(0.000000,80.000000) scale(0.100000,-0.100000)"
fill="#000000" stroke="none">
<path d="M223 598 c-99 -101 -189 -199 -199 -218 -27 -51 -25 -162 3 -216 49
-92 163 -154 256 -139 82 14 111 35 299 223 208 206 226 233 213 318 -5 36
-16 57 -48 90 -53 55 -110 72 -177 54 -38 -10 -69 -36 -213 -178 -187 -186
-203 -211 -172 -275 21 -44 72 -71 118 -61 23 5 66 40 146 119 103 102 112
114 102 134 -7 11 -19 21 -28 21 -9 0 -65 -47 -123 -105 -59 -58 -112 -105
-118 -105 -14 0 -42 28 -42 43 0 6 71 82 157 169 176 177 203 193 266 163 44
-20 71 -73 63 -119 -5 -24 -49 -75 -194 -218 -158 -157 -194 -188 -230 -198
-76 -20 -153 10 -199 79 -31 45 -38 93 -22 149 11 41 36 70 191 228 98 99 178
183 178 187 0 8 -30 37 -38 37 -4 0 -89 -82 -189 -182z"/>
</g>
</svg>
