<svg width="167" height="47" viewBox="0 0 167 47" fill="none" xmlns="http://www.w3.org/2000/svg">
<path d="M43.0654 21.9341H52.1938V30.3547L57.249 21.9341H67.2728L59.5022 33.0267L67.5039 45.3326H56.989L52.1938 36.4354V45.3326H43.0654V21.9341Z" fill="white" fill-opacity="0.9"/>
<path d="M40.7549 44.6102C39.325 45.3757 37.3606 46.0401 34.6164 46.0401C27.1779 46.0401 21.8916 41.1293 21.8916 33.6331C21.8916 25.1403 28.6801 21.2261 34.4864 21.2261C36.3496 21.2261 38.9206 21.6883 40.7549 23.0026V31.1921C39.3539 29.4156 37.3029 28.7223 35.6996 28.7223C32.3054 28.7223 30.6733 31.0332 30.6733 33.8786C30.6733 36.854 32.7965 38.5583 35.6708 38.5583C37.6929 38.5583 39.455 37.6195 40.7549 36.4207V44.6102Z" fill="white" fill-opacity="0.9"/>
<path d="M9.62833 39.7285V36.2188H10.7405C11.6215 36.2188 13.0226 36.3921 13.0226 37.9664C13.0226 39.5985 11.5782 39.743 10.7405 39.743H9.62833V39.7285ZM0.5 21.9341V45.3471H14.0047C20.331 45.3471 21.7031 41.2018 21.7031 38.8186C21.7031 35.641 19.5799 33.33 16.6479 32.839V32.7667C18.54 32.2034 20.6343 30.528 20.6343 27.8848C20.6343 26.0794 19.9555 21.9341 13.3836 21.9341H0.5ZM9.62833 30.8313V27.5526H10.4805C12.0693 27.5526 12.5026 28.3903 12.5026 29.1992C12.5026 29.9936 12.0693 30.8313 10.4805 30.8313H9.62833Z" fill="white" fill-opacity="0.9"/>
<path d="M120.887 24.9098L118.287 25.0109L118.041 24.3754L115.543 24.1877L115.514 23.7255L112.827 23.6821L113.275 24.6498L114.474 24.7943L114.329 24.4765L115.413 25.2131L117.218 25.6176L118.417 25.6609L121.45 25.2565L120.887 24.9098Z" fill="white" fill-opacity="0.67"/>
<path d="M114.243 22.6417L113.015 22.4684C113.015 22.4684 113.044 22.0351 112.567 21.804C112.091 21.5584 112.192 21.7895 112.192 21.7895L111.73 21.4429L110.863 21.2984L110.791 20.6485L109.679 20.5907L109.708 20.2729L108.827 20.1718L108.451 19.8396L108.567 19.4785L108.35 19.1463L107.296 18.6553L106.414 18.3086L105.837 17.6442L105.143 17.052L104.248 16.1854L102.038 15.4055L99.9438 13.86L99.0916 13.4989L98.1961 13.0512L96.2896 12.0257L93.4731 10.4513L87.2479 7.43262L85.4713 6.63823C84.4603 6.20492 84.3014 5.97382 84.2725 5.84383C83.3626 5.62718 83.0593 5.4683 82.5826 4.99166C82.106 5.00611 81.0227 4.38503 80.7339 4.1106C80.7339 4.09616 78.8995 3.56175 78.784 3.46065C78.784 3.3451 74.032 1.66965 73.4543 1.52521C73.0354 1.49632 71.8944 1.27967 71.7355 1.20745C71.5478 1.20745 70.8111 0.976355 70.5223 0.947468C69.5257 0.83192 68.5868 0.67304 67.5758 0.67304C66.8536 0.67304 66.4347 0.673039 65.7992 0.51416C65.5681 0.658596 64.0804 0.384169 63.5605 0.788588C62.9683 0.817476 61.5961 1.12079 61.2206 1.29411C60.4118 1.323 59.0252 2.2185 58.563 2.4496C58.3319 2.56514 58.0864 2.68069 57.8408 2.79624C59.3285 3.31621 61.0184 3.93728 61.0184 4.0095C61.134 4.1106 62.9683 4.64502 62.9683 4.65946C63.2572 4.94833 64.3404 5.5694 64.8171 5.55496C65.2937 6.0316 65.597 6.19048 66.507 6.40713C66.5358 6.53712 66.6947 6.76822 67.6913 7.20153L69.4679 7.98148L75.6931 11.0002L78.5095 12.5745L80.4161 13.6L81.3116 14.0478L82.1638 14.4089L82.8571 14.9288L84.2292 15.4632L87.3201 16.4743L91.0465 17.9331L92.4331 18.4097L93.8342 18.843L94.4986 18.7275L95.2207 18.973L96.0296 19.6952L96.8529 19.4208L97.4162 19.5219L97.8639 20.0996L98.1528 20.4463L98.8605 20.6629L99.5538 20.7496L100.377 20.6051L101.345 20.6918L101.691 21.2695L103.049 21.5006L104.017 21.5729L104.999 21.6451L105.75 21.9917L106.429 22.7283L107.411 22.9306L109.939 23.2916L112.221 23.0172L113.708 23.0894L114.243 22.6417Z" fill="white" fill-opacity="0.67"/>
<path d="M93.748 26.3394L96.4345 26.3827L96.449 26.8449L98.9622 27.0326L99.2077 27.6682L101.808 27.5671L102.371 27.9137L99.3377 28.3181L98.1389 28.2748L96.3334 27.8704L95.2502 27.1337L95.3946 27.4515L94.1958 27.3071L93.748 26.3394Z" fill="white" fill-opacity="0.9"/>
<path d="M94.0212 25.242C94.0212 25.242 94.0501 24.8087 93.5734 24.5776C93.0968 24.332 93.1979 24.5631 93.1979 24.5631L92.7213 24.2165L91.8547 24.072L91.7824 23.4221L90.6703 23.3643L90.6992 23.0465L89.8181 22.9454L89.4426 22.6132L89.5581 22.2377L89.3415 21.9055L88.3304 21.4L87.4494 21.0533L86.8716 20.3889L86.1784 19.7823L85.2973 18.9157L83.0874 18.1357L80.9931 16.5903L80.1409 16.2292L79.231 15.7814L77.3244 14.7559L74.508 13.1816L68.2972 10.1629L66.5207 9.36849C65.5096 8.93518 65.3507 8.70409 65.3219 8.57409C64.4119 8.35744 64.1086 8.19856 63.632 7.72192C63.1553 7.75081 62.0721 7.12974 61.7832 6.84087C61.7832 6.82643 59.9489 6.29201 59.8333 6.17646C59.8333 6.07536 55.0814 4.38546 54.5036 4.24103C54.0848 4.21214 52.9437 3.99549 52.7849 3.92327C52.5826 3.92327 51.8605 3.69217 51.5716 3.66329C50.5894 3.54774 49.6362 3.4033 48.6251 3.38886C47.8885 3.37441 47.4841 3.38886 46.8486 3.22998C46.6175 3.37442 45.1298 3.09999 44.5954 3.48996C44.0032 3.51885 42.6455 3.82216 42.27 3.99549C41.4611 4.02437 40.0745 4.91988 39.5979 5.15097C39.1935 5.35318 38.7168 5.55539 38.3413 5.78649C38.168 5.93092 35.5681 7.2164 35.3948 7.37528C35.4381 7.46194 32.8528 9.0074 32.6072 9.22405C32.4917 9.3396 31.8128 9.61403 31.6395 9.78735C31.4662 9.96068 30.7729 10.5817 30.5418 10.6973C30.4407 10.914 29.7763 11.145 29.6752 11.3617C29.5163 11.5784 28.7363 11.9539 28.6064 12.1128C28.5775 12.1272 28.1442 12.4883 27.7975 12.7772C27.6531 12.9649 27.5086 13.1671 27.3642 13.3549C27.1909 13.4127 26.4976 13.8171 26.3243 13.9471C26.3387 14.366 26.3676 15.0159 25.7176 14.8859L24.9521 15.3337C25.0388 15.3337 24.5477 16.0559 24.1433 16.5758C23.8978 16.8647 22.7856 17.2836 22.5689 17.5869C22.1212 18.2079 21.5435 18.7857 21.0957 19.3923V19.4356H21.1535C21.1535 19.5223 21.5868 19.5079 21.6446 19.6667C21.7312 19.9123 21.4712 20.1289 21.399 20.3311H21.4568V20.3745C21.8034 20.36 22.1356 19.9989 22.4101 19.8545C22.6412 19.7678 22.8723 19.6667 23.1034 19.5801C23.5222 19.3345 23.9266 19.089 24.3311 18.8435C27.4075 17.168 30.484 15.4926 33.5605 13.8315C35.0337 13.0372 36.2037 12.3005 37.8358 11.405C38.2258 11.1884 39.7134 10.1918 40.8256 10.1196C42.2411 10.0329 43.931 10.394 44.3932 10.5817C44.8265 10.7406 45.8953 11.275 46.4441 11.405C46.603 11.4628 46.9208 11.6939 46.993 11.6795C47.0508 11.7517 48.0618 11.9106 48.5962 12.0983C48.784 12.2139 48.9573 12.315 49.1451 12.4305C50.0261 12.6905 52.2216 13.2105 53.016 13.456C53.6948 13.6582 54.0992 14.0482 54.4314 14.1204C54.8936 14.4382 54.9947 14.2793 55.558 14.5537C56.4102 14.6404 56.9302 14.9437 56.959 14.9726C57.219 15.0881 57.4068 15.1892 57.6668 15.3048C57.8834 15.3337 58.3023 15.6659 58.4756 15.7381C58.6778 15.7814 60.0644 16.2003 60.1944 16.2725C60.4255 16.2436 61.4077 16.6769 61.5232 16.778C61.7976 16.908 62.1154 16.9802 62.4331 17.038L65.2641 18.1502L68.355 19.1612L72.0814 20.62L73.4825 21.0967L74.8835 21.53L75.5335 21.4144L76.2701 21.66L77.0789 22.3821L77.9022 22.1077L78.4655 22.2088L78.9132 22.7866L79.2021 23.1332L79.9098 23.3354L80.6031 23.4221L81.4264 23.2776L82.3941 23.3643L82.7408 23.942L84.0985 24.1731L85.0662 24.2453L86.0484 24.3176L86.7994 24.6642L87.4783 25.4008L88.4604 25.603L90.988 25.9786L93.2701 25.7041L94.7578 25.7764L95.2922 25.3719L94.0212 25.242Z" fill="white" fill-opacity="0.9"/>
<path d="M75.1162 45.0579C74.6829 45.289 74.0907 45.4912 73.3107 45.4912C72.0253 45.4912 71.2598 45.0435 70.6387 44.4802C69.801 43.6713 69.4688 42.7614 69.4688 41.6781C69.4688 40.3638 70.0176 39.396 70.6387 38.8183C71.3753 38.125 72.2852 37.8506 73.3252 37.8506C73.8307 37.8506 74.4518 37.9372 75.1306 38.2983V39.9593C74.4662 39.1938 73.6285 39.1361 73.3541 39.1361C71.8953 39.1361 70.9275 40.3493 70.9275 41.6926C70.9275 43.3102 72.1697 44.1913 73.4118 44.1913C74.0907 44.1913 74.6973 43.9024 75.1162 43.3969V45.0579Z" fill="white" fill-opacity="0.9"/>
<path d="M79.2903 45.3179H77.8604V39.2516H76.2139V38.0239H80.9369V39.2516H79.2903V45.3179Z" fill="white" fill-opacity="0.9"/>
<path d="M82.3809 38.024V45.3325H83.8108V42.6315H84.7352C85.5729 42.6315 86.1795 42.386 86.5839 41.9816C87.1472 41.4327 87.1906 40.6383 87.1906 40.3495C87.1906 39.8295 87.0317 39.1073 86.4395 38.5873C85.9051 38.1107 85.3273 38.024 84.5041 38.024H82.3809ZM83.8108 39.2518H84.3019C84.6485 39.2518 85.0096 39.2662 85.3129 39.4828C85.5296 39.6417 85.7173 39.9162 85.7173 40.3061C85.7173 40.6239 85.5873 40.9561 85.3273 41.1583C85.024 41.3894 84.6629 41.3894 84.3885 41.3894H83.8108V39.2518Z" fill="white" fill-opacity="0.9"/>
<path d="M93.285 45.3179H94.816L91.7396 37.865H90.6563L87.4932 45.3179H89.0386L89.6886 43.7868H92.6351L93.285 45.3179ZM90.1363 42.6314L91.1907 40.0026L92.2162 42.6314H90.1363Z" fill="white" fill-opacity="0.9"/>
<path d="M98.0813 41.4759L95.9003 38.0239H97.6046L98.8901 40.2916L100.233 38.0239H101.952L99.699 41.4759L102.198 45.3179H100.493L98.8901 42.6459L97.2002 45.3179H95.4814L98.0813 41.4759Z" fill="white" fill-opacity="0.9"/>
<path d="M107.354 37.8506C105.057 37.8506 103.454 39.4538 103.454 41.6781C103.454 43.9024 105.057 45.4912 107.354 45.4912C109.65 45.4912 111.254 43.9024 111.254 41.6781C111.254 39.4538 109.65 37.8506 107.354 37.8506ZM107.354 44.1913C105.924 44.1913 104.913 43.1514 104.913 41.6637C104.913 40.1904 105.924 39.1361 107.354 39.1361C108.784 39.1361 109.795 40.1904 109.795 41.6637C109.795 43.1514 108.784 44.1913 107.354 44.1913Z" fill="white" fill-opacity="0.9"/>
<path d="M114.546 42.1548H115.066C115.37 42.1548 115.731 42.1548 116.034 42.2992C116.496 42.5014 116.568 42.9058 116.568 43.1369C116.568 43.4258 116.467 43.7725 116.121 43.9747C115.803 44.1624 115.413 44.1769 115.139 44.1769H114.532V42.1548H114.546ZM113.131 38.0239V45.3324H115.586C116.222 45.3324 116.886 45.2313 117.449 44.7402C117.955 44.2924 118.071 43.6858 118.071 43.2669C118.071 42.8914 117.984 42.3137 117.536 41.8948C117.348 41.7215 117.06 41.5193 116.583 41.4326C116.785 41.3171 117.406 40.9415 117.406 40.0027C117.406 39.3961 117.161 38.8183 116.727 38.4861C116.135 38.0239 115.341 38.0239 114.936 38.0239H113.131ZM114.546 39.1794H114.965C115.543 39.1794 116.063 39.425 116.063 40.1038C116.063 41.0426 115.182 41.0571 114.951 41.0571H114.546V39.1794Z" fill="white" fill-opacity="0.9"/>
<path d="M123.487 37.8506C121.19 37.8506 119.587 39.4538 119.587 41.6781C119.587 43.9024 121.19 45.4912 123.487 45.4912C125.798 45.4912 127.386 43.9024 127.386 41.6781C127.386 39.4538 125.783 37.8506 123.487 37.8506ZM123.487 44.1913C122.057 44.1913 121.046 43.1514 121.046 41.6637C121.046 40.1904 122.057 39.1361 123.487 39.1361C124.917 39.1361 125.928 40.1904 125.928 41.6637C125.913 43.1514 124.902 44.1913 123.487 44.1913Z" fill="white" fill-opacity="0.9"/>
<path d="M131.488 35.6841C131.719 36.2907 132.326 36.3196 132.47 36.3196C132.615 36.3196 133.221 36.2907 133.452 35.6841L134.434 36.0741C134.146 36.8107 133.467 37.3018 132.456 37.3018C131.445 37.3018 130.766 36.8251 130.477 36.0741L131.488 35.6841ZM130.679 38.0239V42.9347L134.709 37.8651H135.706V45.3324H134.276V40.4071L130.246 45.4768H129.264V38.0384H130.679V38.0239Z" fill="white" fill-opacity="0.9"/>
<path d="M141.73 38.0239V41.2015C141.73 42.2126 141.614 42.7614 141.47 43.1225C141.253 43.6714 140.834 44.1335 140.314 44.1047V46.9789H141.629V45.3324H146.106V46.9789H147.421V44.1047H146.655V38.0239H141.73ZM143.102 39.2516H145.225V44.1047H142.279C142.481 43.9025 142.698 43.6425 142.857 43.238C142.987 42.8914 143.102 42.3281 143.102 41.2015V39.2516Z" fill="white" fill-opacity="0.9"/>
<path d="M152.475 37.8506C150.178 37.8506 148.575 39.4538 148.575 41.6781C148.575 43.9024 150.178 45.4912 152.475 45.4912C154.786 45.4912 156.375 43.9024 156.375 41.6781C156.375 39.4538 154.771 37.8506 152.475 37.8506ZM152.475 44.1913C151.045 44.1913 150.034 43.1514 150.034 41.6637C150.034 40.1904 151.045 39.1361 152.475 39.1361C153.905 39.1361 154.916 40.1904 154.916 41.6637C154.916 43.1514 153.905 44.1913 152.475 44.1913Z" fill="white" fill-opacity="0.9"/>
<path d="M157.877 45.318L159.235 37.894H160.217L162.21 42.6604L164.275 37.894H165.272L166.5 45.318H165.041L164.391 40.8261L162.383 45.4191H161.979L160.058 40.8261L159.321 45.318H157.877Z" fill="white" fill-opacity="0.9"/>
</svg>
